<svg xmlns="http://www.w3.org/2000/svg" width="16" height="16" fill="currentColor" class="bi bi-file-music" viewBox="0 0 16 16">
  <path d="M10.304 8.13a1 1 0 0 1 1.196-1.273l.27.135a1 1 0 0 1 .515 1.273l-.637 2.122a1 1 0 0 1-1.273.515l-.135-.27a1 1 0 0 1 .515-1.273L10.304 8.13z"/>
  <path d="M12 0H4a2 2 0 0 0-2 2v12a2 2 0 0 0 2 2h8a2 2 0 0 0 2-2V2a2 2 0 0 0-2-2zM4 1a1 1 0 0 1 1-1h8a1 1 0 0 1 1 1v12a1 1 0 0 1-1 1H4a1 1 0 0 1-1-1V2a1 1 0 0 1 1-1z"/>
  <path d="M10 4.5a.5.5 0 0 0-1 0v3a.5.5 0 0 0 1 0v-3z"/>
  <path d="M8.5 6.5A1.5 1.5 0 0 0 7 8v2a1.5 1.5 0 0 0 3 0V8a1.5 1.5 0 0 0-1.5-1.5zM7 9.5a.5.5 0 0 1 1 0V10a.5.5 0 0 1-1 0V9.5z"/>
</svg>